<mxfile host="Electron" modified="2023-08-23T12:34:44.540Z" agent="Mozilla/5.0 (Windows NT 10.0; Win64; x64) AppleWebKit/537.36 (KHTML, like Gecko) draw.io/21.6.5 Chrome/114.0.5735.243 Electron/25.3.1 Safari/537.36" etag="vuLNYoIYBVK9nTg8ULbJ" version="21.6.5" type="device">
  <diagram name="Page-1" id="97Bsm__V0UxfQRL-0CLP">
    <mxGraphModel dx="1194" dy="848" grid="1" gridSize="10" guides="1" tooltips="1" connect="1" arrows="1" fold="1" page="1" pageScale="1" pageWidth="827" pageHeight="1169" math="0" shadow="0">
      <root>
        <mxCell id="0" />
        <mxCell id="1" parent="0" />
        <mxCell id="JiLHuhKR-pPo9REAsDo5-19" value="Classname" style="swimlane;fontStyle=1;align=center;verticalAlign=top;childLayout=stackLayout;horizontal=1;startSize=26;horizontalStack=0;resizeParent=1;resizeParentMax=0;resizeLast=0;collapsible=1;marginBottom=0;whiteSpace=wrap;html=1;" vertex="1" parent="1">
          <mxGeometry x="30" y="60" width="450" height="320" as="geometry" />
        </mxCell>
        <mxCell id="JiLHuhKR-pPo9REAsDo5-20" value="-capaciteEnL : doublre&amp;lt;const&amp;gt;" style="text;strokeColor=none;fillColor=none;align=left;verticalAlign=top;spacingLeft=4;spacingRight=4;overflow=hidden;rotatable=0;points=[[0,0.5],[1,0.5]];portConstraint=eastwest;whiteSpace=wrap;html=1;" vertex="1" parent="JiLHuhKR-pPo9REAsDo5-19">
          <mxGeometry y="26" width="450" height="26" as="geometry" />
        </mxCell>
        <mxCell id="JiLHuhKR-pPo9REAsDo5-23" value="-contenanceEnL : doublre" style="text;strokeColor=none;fillColor=none;align=left;verticalAlign=top;spacingLeft=4;spacingRight=4;overflow=hidden;rotatable=0;points=[[0,0.5],[1,0.5]];portConstraint=eastwest;whiteSpace=wrap;html=1;" vertex="1" parent="JiLHuhKR-pPo9REAsDo5-19">
          <mxGeometry y="52" width="450" height="26" as="geometry" />
        </mxCell>
        <mxCell id="JiLHuhKR-pPo9REAsDo5-24" value="-estOuverte : boolean" style="text;strokeColor=none;fillColor=none;align=left;verticalAlign=top;spacingLeft=4;spacingRight=4;overflow=hidden;rotatable=0;points=[[0,0.5],[1,0.5]];portConstraint=eastwest;whiteSpace=wrap;html=1;" vertex="1" parent="JiLHuhKR-pPo9REAsDo5-19">
          <mxGeometry y="78" width="450" height="26" as="geometry" />
        </mxCell>
        <mxCell id="JiLHuhKR-pPo9REAsDo5-25" value="nom : String" style="text;strokeColor=none;fillColor=none;align=left;verticalAlign=top;spacingLeft=4;spacingRight=4;overflow=hidden;rotatable=0;points=[[0,0.5],[1,0.5]];portConstraint=eastwest;whiteSpace=wrap;html=1;" vertex="1" parent="JiLHuhKR-pPo9REAsDo5-19">
          <mxGeometry y="104" width="450" height="26" as="geometry" />
        </mxCell>
        <mxCell id="JiLHuhKR-pPo9REAsDo5-21" value="" style="line;strokeWidth=1;fillColor=none;align=left;verticalAlign=middle;spacingTop=-1;spacingLeft=3;spacingRight=3;rotatable=0;labelPosition=right;points=[];portConstraint=eastwest;strokeColor=inherit;" vertex="1" parent="JiLHuhKR-pPo9REAsDo5-19">
          <mxGeometry y="130" width="450" height="8" as="geometry" />
        </mxCell>
        <mxCell id="JiLHuhKR-pPo9REAsDo5-22" value="ouvert() : boolean&amp;nbsp;" style="text;strokeColor=none;fillColor=none;align=left;verticalAlign=top;spacingLeft=4;spacingRight=4;overflow=hidden;rotatable=0;points=[[0,0.5],[1,0.5]];portConstraint=eastwest;whiteSpace=wrap;html=1;" vertex="1" parent="JiLHuhKR-pPo9REAsDo5-19">
          <mxGeometry y="138" width="450" height="26" as="geometry" />
        </mxCell>
        <mxCell id="JiLHuhKR-pPo9REAsDo5-26" value="fermer() : boolean" style="text;strokeColor=none;fillColor=none;align=left;verticalAlign=top;spacingLeft=4;spacingRight=4;overflow=hidden;rotatable=0;points=[[0,0.5],[1,0.5]];portConstraint=eastwest;whiteSpace=wrap;html=1;" vertex="1" parent="JiLHuhKR-pPo9REAsDo5-19">
          <mxGeometry y="164" width="450" height="26" as="geometry" />
        </mxCell>
        <mxCell id="JiLHuhKR-pPo9REAsDo5-27" value="remplirtout() : boolean&amp;nbsp;" style="text;strokeColor=none;fillColor=none;align=left;verticalAlign=top;spacingLeft=4;spacingRight=4;overflow=hidden;rotatable=0;points=[[0,0.5],[1,0.5]];portConstraint=eastwest;whiteSpace=wrap;html=1;" vertex="1" parent="JiLHuhKR-pPo9REAsDo5-19">
          <mxGeometry y="190" width="450" height="26" as="geometry" />
        </mxCell>
        <mxCell id="JiLHuhKR-pPo9REAsDo5-28" value="viderTout() : boolean" style="text;strokeColor=none;fillColor=none;align=left;verticalAlign=top;spacingLeft=4;spacingRight=4;overflow=hidden;rotatable=0;points=[[0,0.5],[1,0.5]];portConstraint=eastwest;whiteSpace=wrap;html=1;" vertex="1" parent="JiLHuhKR-pPo9REAsDo5-19">
          <mxGeometry y="216" width="450" height="26" as="geometry" />
        </mxCell>
        <mxCell id="JiLHuhKR-pPo9REAsDo5-29" value="vider(doublre quantiteEnL) : boolean" style="text;strokeColor=none;fillColor=none;align=left;verticalAlign=top;spacingLeft=4;spacingRight=4;overflow=hidden;rotatable=0;points=[[0,0.5],[1,0.5]];portConstraint=eastwest;whiteSpace=wrap;html=1;" vertex="1" parent="JiLHuhKR-pPo9REAsDo5-19">
          <mxGeometry y="242" width="450" height="26" as="geometry" />
        </mxCell>
        <mxCell id="JiLHuhKR-pPo9REAsDo5-30" value="bouteille()" style="text;strokeColor=none;fillColor=none;align=left;verticalAlign=top;spacingLeft=4;spacingRight=4;overflow=hidden;rotatable=0;points=[[0,0.5],[1,0.5]];portConstraint=eastwest;whiteSpace=wrap;html=1;" vertex="1" parent="JiLHuhKR-pPo9REAsDo5-19">
          <mxGeometry y="268" width="450" height="26" as="geometry" />
        </mxCell>
        <mxCell id="JiLHuhKR-pPo9REAsDo5-31" value="bouteille(doublre_capaciteEnL, doublre_contenanceEnL, boolean_estOuverte, String_nom)" style="text;strokeColor=none;fillColor=none;align=left;verticalAlign=top;spacingLeft=4;spacingRight=4;overflow=hidden;rotatable=0;points=[[0,0.5],[1,0.5]];portConstraint=eastwest;whiteSpace=wrap;html=1;" vertex="1" parent="JiLHuhKR-pPo9REAsDo5-19">
          <mxGeometry y="294" width="450" height="26" as="geometry" />
        </mxCell>
        <mxCell id="JiLHuhKR-pPo9REAsDo5-33" value="Bouteille d&#39;eau : bouteille" style="swimlane;fontStyle=0;childLayout=stackLayout;horizontal=1;startSize=26;fillColor=none;horizontalStack=0;resizeParent=1;resizeParentMax=0;resizeLast=0;collapsible=1;marginBottom=0;whiteSpace=wrap;html=1;" vertex="1" parent="1">
          <mxGeometry x="610" y="150" width="190" height="120" as="geometry" />
        </mxCell>
        <mxCell id="JiLHuhKR-pPo9REAsDo5-34" value="capaciteEnL =1,5&lt;br&gt;contenanceEnL = 1,25&lt;br&gt;est Ouverte = false&lt;br&gt;nom = &quot;Christaline&quot;" style="text;strokeColor=none;fillColor=none;align=left;verticalAlign=top;spacingLeft=4;spacingRight=4;overflow=hidden;rotatable=0;points=[[0,0.5],[1,0.5]];portConstraint=eastwest;whiteSpace=wrap;html=1;" vertex="1" parent="JiLHuhKR-pPo9REAsDo5-33">
          <mxGeometry y="26" width="190" height="94" as="geometry" />
        </mxCell>
        <mxCell id="JiLHuhKR-pPo9REAsDo5-38" value="" style="endArrow=classic;html=1;rounded=0;" edge="1" parent="1">
          <mxGeometry width="50" height="50" relative="1" as="geometry">
            <mxPoint x="480" y="210" as="sourcePoint" />
            <mxPoint x="600" y="210" as="targetPoint" />
          </mxGeometry>
        </mxCell>
      </root>
    </mxGraphModel>
  </diagram>
</mxfile>
